Motion_mu12
version=1
nRows=8
nColumns=43
inDegrees=yes
endheader
time	pelvis_tilt	pelvis_list	pelvis_rotation	pelvis_tx	pelvis_ty	pelvis_tz	hip_flexion_r	hip_adduction_r	hip_rotation_r	knee_angle_r	ankle_angle_r	subtalar_angle_r	mtp_angle_r	hip_flexion_l	hip_adduction_l	hip_rotation_l	knee_angle_l	ankle_angle_l	subtalar_angle_l	mtp_angle_l	lumbar_extension	lumbar_bending	lumbar_rotation	neck_flexion	neck_lateral_bending	neck_rotation	arm_flex_r	arm_add_r	arm_rot_r	elbow_flex_r	pro_sup_r	wrist_flex_r	wrist_dev_r	hand_finger_flex_r	arm_flex_l	arm_add_l	arm_rot_l	elbow_flex_l	pro_sup_l	wrist_flex_l	wrist_dev_l	hand_finger_flex_l
      3.38000000	     -3.08691750	    -12.40784974	    -88.19247364	     -0.01950782	      1.60196061	      0.90904834	     56.57299267	      0.43129629	     -6.72189862	    -79.41762616	    -19.34959644	    -22.24312537	    -13.42625404	     51.07298037	     -2.23720840	     -4.47250256	    -64.20829248	    -21.22335910	    -11.78138427	     -5.59962324	    -46.75288738	      2.53835977	      2.07002259	    -30.74528083	     -3.24962601	     -6.03019003	   -205.87594760	   -152.31049656	   -249.12472670	    163.49718728	     76.05806889	     65.60065669	     14.57018589	     63.99987213	    -21.26034443	    -22.10966283	    -75.68914549	    165.67885921	     96.82262054	     59.65698809	    -10.18679671	     78.05100833
      3.38250000	     -3.07579945	    -12.73641745	    -88.35953614	     -0.01962072	      1.60184442	      0.90976792	     56.30542132	      0.57523746	     -6.53965500	    -79.12018157	    -19.80654849	    -22.08410594	    -13.67104365	     50.70621292	     -2.33616983	     -4.61847286	    -63.84009858	    -21.49474746	    -11.61126010	     -5.48938319	    -46.99742030	      2.42720202	      2.16302091	    -30.51308457	     -3.29156535	     -6.22290409	   -205.81335230	   -152.23307376	   -249.34509529	    163.41368467	     75.53587953	     65.65492305	     14.39714903	     64.30070687	    -20.96319276	    -22.00344037	    -75.74536299	    165.69133682	     96.39014203	     60.08087908	     -9.79191739	     77.90314200
      3.38500000	     -3.09610530	    -12.81567412	    -88.37087668	     -0.01967093	      1.60089325	      0.91088580	     56.29023560	      0.58903818	     -6.53321551	    -78.90636781	    -19.76544655	    -22.10426888	    -13.68030076	     50.67537202	     -2.31074429	     -4.63840279	    -63.58962016	    -21.45398115	    -11.61984418	     -5.47474549	    -46.86696407	      2.43752344	      2.19081135	    -30.51832482	     -3.28381888	     -6.21996754	   -205.90791960	   -152.21117658	   -249.38219266	    163.41322708	     75.52117282	     65.65685078	     14.40209624	     64.32125258	    -21.00479888	    -22.05927131	    -75.77519150	    165.74226421	     96.34213690	     60.10456632	     -9.76739084	     77.89144123
      3.38750000	     -3.12027704	    -12.89127097	    -88.39710625	     -0.01972361	      1.59998025	      0.91190519	     56.28126864	      0.62232516	     -6.52770365	    -78.67467525	    -19.73697066	    -22.11269698	    -13.69432007	     50.63229507	     -2.28825517	     -4.65942374	    -63.30365144	    -21.42810419	    -11.61501316	     -5.46030398	    -46.74637861	      2.44592513	      2.20180325	    -30.51913829	     -3.28401889	     -6.22408601	   -205.93164898	   -152.16391762	   -249.45308902	    163.42690295	     75.48531001	     65.66290746	     14.39631010	     64.35234803	    -21.00659981	    -22.09481049	    -75.80916745	    165.74933873	     96.28881870	     60.13044611	     -9.72895545	     77.87715468
      3.39000000	     -3.14224123	    -12.97657082	    -88.42556557	     -0.01975955	      1.59908816	      0.91295949	     56.25957019	      0.65183175	     -6.51122627	    -78.43948676	    -19.72552562	    -22.10992166	    -13.71118060	     50.58788011	     -2.27112684	     -4.67832776	    -63.03050610	    -21.42259166	    -11.59609605	     -5.44843195	    -46.63405528	      2.45152276	      2.21775212	    -30.51336421	     -3.30334538	     -6.22840574	   -205.96851100	   -152.12167179	   -249.52278458	    163.42525149	     75.43749327	     65.67524688	     14.38431182	     64.38785176	    -20.99452482	    -22.11078869	    -75.84029445	    165.76602220	     96.22690926	     60.16137357	     -9.69254871	     77.86358068
      3.39250000	     -3.16358185	    -13.06630177	    -88.46247513	     -0.01980442	      1.59820446	      0.91399581	     56.22992832	      0.68997007	     -6.49407481	    -78.19183252	    -19.72360110	    -22.09928772	    -13.73149649	     50.53039944	     -2.25288472	     -4.69572825	    -62.74384496	    -21.43239807	    -11.56207384	     -5.43707935	    -46.53133701	      2.45474650	      2.23654092	    -30.50144061	     -3.33729338	     -6.23407999	   -206.00322065	   -152.07629237	   -249.60072324	    163.42507469	     75.36955546	     65.69445591	     14.36244327	     64.43221905	    -20.97495805	    -22.11893550	    -75.87232760	    165.77331937	     96.15479999	     60.20301236	     -9.64975055	     77.84929781
      3.39500000	     -3.18426741	    -13.16589195	    -88.50086512	     -0.01985950	      1.59734440	      0.91504568	     56.18590573	      0.73032516	     -6.47119206	    -77.93892457	    -19.72849995	    -22.08376557	    -13.75493250	     50.46430623	     -2.24076456	     -4.70965302	    -62.45765404	    -21.45570845	    -11.51301695	     -5.42546828	    -46.44010030	      2.45398835	      2.25745664	    -30.47986807	     -3.38286989	     -6.24187403	   -206.04178099	   -152.03646167	   -249.68289278	    163.42120462	     75.28237306	     65.71990184	     14.33217783	     64.48607494	    -20.95172155	    -22.12260398	    -75.90271368	    165.77634377	     96.07069570	     60.25902784	     -9.60067657	     77.83393301
      3.39750000	     -3.20255099	    -13.27204872	    -88.53989910	     -0.01987568	      1.59650652	      0.91612072	     56.13667810	      0.76605999	     -6.44418121	    -77.68509493	    -19.73486107	    -22.06729827	    -13.77737288	     50.39594553	     -2.22572124	     -4.72198454	    -62.18493538	    -21.48457247	    -11.45471434	     -5.41432100	    -46.35350944	      2.45665138	      2.28062557	    -30.45086444	     -3.42519482	     -6.25179941	   -206.09245718	   -151.99287690	   -249.75589850	    163.41776829	     75.19013019	     65.74712626	     14.29898654	     64.54148058	    -20.93219608	    -22.13073035	    -75.93174331	    165.77634167	     95.98586232	     60.32131481	     -9.55217212	     77.82012645
